<svg width="30" height="30" viewBox="0 0 30 30" fill="none" xmlns="http://www.w3.org/2000/svg">
<rect width="30" height="30" rx="15" fill="#00A9FB"/>
<path d="M4.53313 18.1375C4.54473 20.6507 3.94502 22.6362 4.22541 23.8227M4.71925 17.9755C4.31077 19.4921 4.18432 21.2278 4 23.9525" stroke="black"/>
<path d="M4.0559 23.6311C5.35747 22.5342 6.63053 20.8499 8.31547 19.3893M4 24C5.38291 21.9157 7.07515 20.1522 8.1884 19.2037" stroke="black"/>
<path d="M4.55082 18.3575C5.44508 13.8526 6.50774 9.81964 7.91736 7.22116M4.35965 18.2087C5.17747 14.7571 6.25682 11.0227 7.72575 6.92119" stroke="black"/>
<path d="M7.23663 7.46019C11.4189 6.20545 15.0476 5.85119 26 6.21539M7.30261 7.33264C12.471 6.35379 17.5004 5.94381 25.9905 6.00614" stroke="black"/>
<path d="M22.7003 17.0543C24.1091 14.5673 24.7485 11.6013 25.7772 6.23192M22.8667 16.9811C24.0971 13.784 24.932 10.2739 25.6896 6" stroke="black"/>
<path d="M8.06435 19.4127C12.4288 18.4061 17.4747 17.8883 23.071 16.9959M7.95584 19.3049C13.957 18.2039 19.8345 17.3253 23.1363 16.7472" stroke="black"/>
<path d="M12.0684 11.7841C12.0927 11.5804 12.011 11.4018 12 11.0729M12.0638 11.7904C12.0569 11.5203 12.0114 11.2772 12.0191 11.0812M12.1529 12.0284C12.1752 11.8323 12.1276 11.4657 12.1329 10.5037M12.1073 12.2159C12.1572 11.6244 12.1551 10.9727 12.1492 10.5437M12.0592 12.4853C12.1848 11.6858 12.2879 10.8931 12.2406 10.169M12.1312 12.3473C12.1461 11.7503 12.2405 11.1445 12.2157 10.1725M12.3079 12.6524C12.3076 11.9314 12.1778 11.5392 12.2044 9.96619M12.2196 12.6706C12.2458 11.6785 12.2888 10.5656 12.1848 9.97981M12.2182 12.8828C12.3977 11.6872 12.2083 10.6183 12.1778 9.92696M12.2987 12.8671C12.2933 11.7217 12.2507 10.562 12.2903 9.88756M12.4081 13.0717C12.3635 12.1083 12.3221 11.2064 12.354 9.6063M12.3676 13.0451C12.3966 12.2183 12.3955 11.5016 12.3411 9.60935M12.3864 13.0084C12.3178 12.1491 12.453 11.276 12.5098 9.54616M12.4528 13.1693C12.3886 11.7344 12.4425 10.428 12.3881 9.66521M12.4258 13.0761C12.4492 11.808 12.4935 10.6022 12.4079 9.30991M12.5088 13.2146C12.5413 12.4504 12.4568 11.5965 12.4944 9.39246M12.6268 13.402C12.6045 12.0447 12.6054 10.7615 12.467 9.39181M12.5651 13.299C12.6138 12.4357 12.5489 11.5079 12.4892 9.42209M12.6078 13.3644C12.5964 11.8936 12.5584 10.2665 12.6747 9.20382M12.6655 13.3902C12.6355 12.3256 12.6204 11.4538 12.6464 9.34396M12.6391 13.3174C12.7493 12.4893 12.6063 11.5743 12.6583 9.04462M12.7307 13.366C12.6902 12.0485 12.6363 10.7488 12.6832 9.12836M12.8991 13.4542C12.7853 12.3854 12.8089 11.4616 12.7999 9.00305M12.8279 13.4428C12.7234 12.1314 12.7207 10.6351 12.6924 9M12.8495 13.7194C12.8232 12.0489 12.8844 10.7582 12.7059 9.12561M12.8438 13.6664C12.7986 11.9046 12.7923 10.3248 12.7122 9.11071M12.8997 13.7084C12.9426 12.0755 12.9798 10.361 12.7664 9.09619M12.9003 13.7604C12.8841 12.4055 12.8037 11.0323 12.8123 9.1749M12.9558 13.7493C13.073 12.4055 12.9779 11.1125 12.9658 9.06796M12.9568 13.7208C12.9611 12.6429 12.8999 11.5999 12.9417 9.13751M13.0832 13.7022C12.9893 12.3056 13.0169 10.7829 12.8807 9.0339M13.059 13.6596C12.9538 12.0006 12.9896 10.3279 12.9782 9.15157M12.9725 13.5888C13.1466 12.4699 12.9999 11.3316 13.0805 9.1882M13.066 13.7225C13.1043 11.9758 12.9832 10.2744 13.0358 9.15811M13.2518 13.4602C13.1018 11.9326 13.1822 10.3662 13.1221 9.16445M13.1247 13.6383C13.1451 11.8486 13.0252 10.0126 13.095 9.07843M13.1329 13.6523C13.3102 12.7551 13.2531 11.4592 13.285 9.08605M13.2662 13.6681C13.1597 12.3536 13.1386 11.0844 13.1816 9.12475M13.307 13.5551C13.3634 12.4345 13.3804 11.6382 13.1531 9.25011M13.2924 13.574C13.1953 12.0563 13.2657 10.5598 13.238 9.08302M13.335 13.6072C13.4196 12.4921 13.2921 11.6535 13.2164 9.07568M13.3681 13.4828C13.3148 12.2084 13.2738 10.9518 13.3419 9.13641M13.4511 13.4908C13.4203 11.9462 13.4137 10.3982 13.2932 9.20703M13.4182 13.4577C13.4335 12.3979 13.3252 11.2975 13.3372 9.23451M13.386 13.4247C13.3103 12.5553 13.4242 11.4298 13.314 9.41975M13.5153 13.4493C13.4094 12.4598 13.4801 11.4419 13.4552 9.39633M13.5686 13.3105C13.5908 12.3658 13.56 10.9223 13.3961 9.54123M13.5515 13.4014C13.5045 12.4133 13.579 11.6081 13.5114 9.43956M13.5149 13.3292C13.597 12.5883 13.4716 11.7986 13.4999 9.44955M13.6192 13.4031C13.5299 11.9579 13.5314 10.5539 13.5466 9.5723M13.6621 13.1824C13.4936 11.9784 13.6384 10.7802 13.563 9.77536M13.6436 13.1295C13.691 11.898 13.5872 10.6612 13.5674 9.73109M13.7284 12.917C13.6309 12.0347 13.8235 10.979 13.797 9.74807M13.7238 12.9913C13.6973 11.9401 13.662 11.0289 13.665 9.97451M13.694 12.6978C13.8564 11.7607 13.7384 10.7545 13.6644 9.96937M13.7952 12.6001C13.7873 11.9839 13.7856 11.2947 13.7791 10.0279M13.7611 12.5656C13.9182 11.8781 13.7009 11.2599 13.9149 10.3523M13.7823 12.3556C13.8308 11.745 13.7813 11.0211 13.8623 10.1691M13.9726 12.2413C13.844 12.034 13.8797 11.7961 13.938 11.271M13.9239 12.1522C13.9215 11.9698 13.8594 11.7807 13.9193 11.184" stroke="black"/>
<path d="M12.6784 9.21452C12.8533 9.06343 13.1439 9.10999 13.3297 9.30426C13.5155 9.49853 13.6918 9.9045 13.793 10.3801C13.8941 10.8558 13.9719 11.6258 13.9367 12.158C13.9016 12.6902 13.7491 13.2871 13.5823 13.5734C13.4155 13.8598 13.1333 13.9307 12.936 13.8761C12.7386 13.8216 12.5529 13.5995 12.3983 13.246C12.2438 12.8926 12.0422 12.2813 12.0087 11.7553C11.9753 11.2292 12.0382 10.5378 12.1976 10.0896C12.357 9.64136 12.8147 9.22623 12.9652 9.06595C13.1156 8.90566 13.0996 9.08217 13.1004 9.12787M13.177 9.0614C13.379 9.09682 13.5952 9.41143 13.7166 9.78208C13.8381 10.1527 13.8949 10.7426 13.9057 11.2853C13.9165 11.8279 13.9115 12.5897 13.7814 13.038C13.6513 13.4863 13.3284 13.8787 13.125 13.9749C12.9215 14.0711 12.7283 13.8779 12.5607 13.6153C12.3931 13.3528 12.1828 12.8733 12.1196 12.3994C12.0565 11.9255 12.1211 11.2604 12.1819 10.7719C12.2428 10.2834 12.3214 9.75552 12.4848 9.46839C12.6483 9.18125 13.058 9.11009 13.1627 9.04913C13.2673 8.98817 13.1118 9.04164 13.1127 9.10263" stroke="black" stroke-width="2"/>
<path d="M19.1449 11.6584C19.2694 11.1174 19.1741 10.5814 19.0992 9.54255M19.1115 11.7199C19.1192 11.2388 19.1819 10.8266 19.15 9.55175M19.2116 12.133C19.2188 11.0772 19.2042 10.1487 19.2102 9.34165M19.2316 12.0193C19.2593 10.9964 19.1401 10.144 19.1797 9.33047M19.3601 12.4044C19.3005 11.5576 19.1769 10.4738 19.2994 9.24362M19.2834 12.3007C19.248 11.4157 19.3269 10.5841 19.235 9.17682M19.3639 12.4415C19.4362 11.4439 19.3292 10.0799 19.3908 8.98919M19.3408 12.5772C19.3775 11.4456 19.4005 10.5204 19.3515 9.01382M19.4673 12.9651C19.5816 11.3036 19.5431 9.78861 19.2836 8.76672M19.4413 12.9158C19.3576 11.8359 19.3786 10.9482 19.4736 8.93879M19.4865 13.0009C19.5647 11.3935 19.5963 10.1593 19.4533 8.67304M19.527 12.8656C19.5114 11.5793 19.548 10.2208 19.509 8.70743M19.7379 12.9475C19.5757 11.5697 19.5532 10.3132 19.6513 8.43503M19.5451 12.9859C19.6109 11.9227 19.5677 11.0403 19.5408 8.51505M19.6931 12.8693C19.6954 11.2829 19.6537 10.0155 19.5957 8.24108M19.7411 13.0332C19.6962 11.4449 19.6479 9.69804 19.5583 8.26477M19.7949 13.1037C19.7569 11.2235 19.5376 9.27412 19.8163 8.31201M19.7789 12.9362C19.7488 11.1092 19.6813 9.19773 19.6126 8.28848M19.7196 13.2146C19.6879 11.1892 19.8831 9.45894 19.791 8.12119M19.8747 13.074C19.8089 11.8857 19.8145 10.5563 19.7787 8.29724M19.7815 13.0638C19.9595 12.0168 19.9197 11.2167 19.6991 8.29292M19.9254 13.0739C19.9328 11.5969 19.8103 10.2461 19.8446 8.2656M20.0502 13.1412C20.0946 11.5405 19.9319 9.70139 19.7582 8.22395M19.9979 13.1775C19.9718 11.4557 19.8378 9.70161 19.8631 8.23978M20.1653 13.341C20.093 11.8906 20.0558 10.9549 19.9484 8.12518M20.089 13.3281C20.0349 11.3221 20.0362 9.28416 20.0017 8.22338M20.0689 13.1866C19.9585 11.8642 19.9297 10.2116 19.9047 8.19848M20.1196 13.2752C20.0609 11.4161 19.9925 9.45631 20.0946 8.23836M20.2949 13.1691C20.1229 11.2737 20.1181 9.2565 20.0636 8.24835M20.2486 13.3584C20.1726 11.6718 20.1839 9.81862 20.1009 8.2513M20.1377 13.1778C20.34 11.6659 20.2898 10.4737 20.3217 8.16843M20.2569 13.2129C20.2722 11.5988 20.1801 10.1404 20.1993 8.25313M20.2346 13.2407C20.3543 11.4639 20.3882 9.85723 20.3742 8.30591M20.3209 13.1108C20.3422 11.6556 20.2906 10.0598 20.291 8.26998M20.518 13.202C20.2738 11.3678 20.4592 9.77629 20.3854 8M20.3433 13.0917C20.4221 11.4056 20.4336 9.78687 20.2966 8.14329M20.4477 12.9457C20.4411 11.6053 20.3424 10.1191 20.4784 8.30556M20.4445 12.9729C20.4446 11.2942 20.453 9.67069 20.3592 8.16955M20.5235 12.74C20.5753 11.0969 20.371 9.46663 20.3758 8.28696M20.5769 12.9306C20.4339 11.7949 20.4678 10.8385 20.5139 8.08394M20.6026 12.9401C20.5427 11.09 20.6376 9.20056 20.4535 8.43152M20.5394 12.8645C20.5905 11.1862 20.6127 9.59415 20.5484 8.29543M20.7566 12.7194C20.6267 11.9559 20.4973 11.07 20.5528 8.37271M20.6676 12.7437C20.6494 11.4513 20.6258 10.2351 20.5649 8.53698M20.6203 12.4781C20.8056 11.6882 20.6409 11.0002 20.594 8.59959M20.7037 12.6836C20.7323 11.0786 20.7169 9.66339 20.6457 8.65654M20.8173 12.4672C20.8026 11.4289 20.8941 10.1602 20.6718 8.62622M20.8493 12.6172C20.8226 11.6809 20.7999 10.9177 20.7912 8.6994M20.9118 12.2182C20.8531 11.1756 20.8646 9.86612 20.7111 9.01591M20.9064 12.1365C20.8656 11.4252 20.7874 10.6766 20.8399 8.97998M21.0056 11.9461C20.8304 11.0758 20.8336 10.5244 20.8655 9.087M20.9179 11.9489C21.0141 10.8315 20.8964 9.81096 20.8468 9.12309M20.8921 11.4106C21.1371 10.8376 20.8446 10.0723 21.0869 9.40182M21.0398 11.5542C20.9228 10.6918 20.9208 9.79684 20.9638 9.28319" stroke="black"/>
<path d="M20.429 8.19387C20.6482 8.33954 20.9247 8.91904 21.0301 9.40603C21.1355 9.89303 21.1007 10.5859 21.0614 11.1158C21.0221 11.6458 20.944 12.2197 20.7942 12.5858C20.6444 12.9519 20.3885 13.2735 20.1626 13.3124C19.9367 13.3514 19.6177 13.1559 19.4387 12.8195C19.2596 12.4831 19.1435 11.8338 19.0883 11.294C19.0332 10.7542 19.0196 10.0875 19.1078 9.58073C19.196 9.07392 19.3869 8.45705 19.6177 8.25315C19.8486 8.04926 20.3313 8.31123 20.4928 8.35736C20.6542 8.4035 20.5817 8.48232 20.5864 8.52995M19.6044 8.42499C19.7778 8.14628 20.0828 8.08236 20.2884 8.20968C20.494 8.33701 20.7122 8.74141 20.8382 9.18893C20.9642 9.63644 21.0314 10.3571 21.0446 10.8948C21.0577 11.4325 21.0671 12.0011 20.9171 12.4151C20.7671 12.8291 20.3932 13.2896 20.1446 13.3789C19.896 13.4682 19.596 13.2641 19.4256 12.951C19.2552 12.6379 19.1888 12.0584 19.1223 11.5003C19.0558 10.9423 18.9502 10.1126 19.0266 9.60272C19.1031 9.09283 19.4678 8.62291 19.5807 8.44101C19.6936 8.25912 19.6948 8.46119 19.704 8.51135" stroke="black" stroke-width="2"/>
</svg>
