<svg width="51" height="51" viewBox="0 0 51 51" fill="none" xmlns="http://www.w3.org/2000/svg">
<path d="M1.71175 34.2153C1.73812 41.1965 0.375137 46.7116 1.01239 50.0075M2.13474 33.7653C1.20638 37.9781 0.918998 42.7996 0.500092 50.3681" stroke="white" stroke-linecap="round"/>
<path d="M0.627133 49.4754C3.58525 46.4283 6.47855 41.7498 10.308 37.6926M0.500092 50.5001C3.64305 44.7102 7.48905 39.8117 10.0192 37.1772" stroke="white" stroke-linecap="round"/>
<path d="M1.92477 35.5001C3.91129 22.7211 6.2719 11.2809 9.40324 3.90987M1.50009 35.0779C3.31681 25.2868 5.71449 14.6935 8.97759 3.05895" stroke="white" stroke-linecap="round"/>
<path d="M7.85608 4.55615C17.3613 1.07075 25.6082 0.086716 50.5001 1.09838M8.00602 4.20184C19.7524 1.48281 31.1829 0.34399 50.4784 0.517125" stroke="white" stroke-linecap="round"/>
<path d="M43.0008 31.2064C46.2025 24.2981 47.6557 16.0594 49.9936 1.14428M43.3789 31.0031C46.1751 22.1223 48.0726 12.3719 49.7944 0.500065" stroke="white" stroke-linecap="round"/>
<path d="M9.73724 37.7575C19.6565 34.9615 31.1243 33.5231 43.8433 31.0443M9.49063 37.458C23.1296 34.3997 36.4874 31.9591 43.9916 30.3535" stroke="white" stroke-linecap="round"/>
<path d="M18.8373 16.5671C18.8926 16.0012 18.7069 15.5051 18.6819 14.5916M18.8269 16.5844C18.8112 15.8343 18.7079 15.1591 18.7253 14.6144M19.0293 17.2456C19.08 16.7009 18.9718 15.6825 18.984 13.0102M18.9256 17.7665C19.0391 16.1235 19.0343 14.313 19.0209 13.1215M18.8165 18.5149C19.1019 16.294 19.3363 14.0921 19.2287 12.0807M18.9801 18.1314C19.0139 16.4731 19.2284 14.7905 19.1722 12.0903M19.3815 18.979C19.3809 16.9762 19.086 15.8868 19.1464 11.5173M19.181 19.0295C19.2406 16.2735 19.3382 13.1823 19.1018 11.5551M19.1777 19.619C19.5857 16.2977 19.1554 13.3288 19.086 11.4083M19.3607 19.5752C19.3485 16.3935 19.2516 13.1724 19.3416 11.2988M19.6093 20.1436C19.508 17.4677 19.4139 14.9624 19.4864 10.5176M19.5174 20.0698C19.5832 17.7732 19.5806 15.7823 19.4571 10.526M19.5601 19.9678C19.4042 17.5808 19.7114 15.1557 19.8406 10.3505M19.7109 20.4148C19.565 16.4289 19.6876 12.8001 19.5639 10.6812M19.6497 20.1558C19.7028 16.6334 19.8034 13.2839 19.609 9.69426M19.8382 20.5406C19.912 18.4177 19.72 16.046 19.8054 9.92356M20.1065 21.0612C20.0557 17.2908 20.0578 13.7266 19.7433 9.92175M19.9662 20.7751C20.0769 18.377 19.9293 15.7998 19.7937 10.0059M20.0632 20.9567C20.0374 16.8713 19.951 12.3515 20.2152 9.39955M20.1943 21.0283C20.1261 18.0712 20.0918 15.6495 20.151 9.78884M20.1343 20.8262C20.3847 18.5258 20.0598 15.9843 20.1779 8.95734M20.3426 20.9611C20.2504 17.3015 20.1281 13.6911 20.2346 9.18994M20.7252 21.2062C20.4665 18.2372 20.5202 15.6712 20.4997 8.84187M20.5635 21.1745C20.326 17.5317 20.3198 13.3753 20.2555 8.8334M20.6126 21.9428C20.5528 17.3024 20.6919 13.7173 20.2863 9.1823M20.5997 21.7955C20.4968 16.9018 20.4824 12.5135 20.3004 9.14091M20.7266 21.9124C20.8241 17.3765 20.9086 12.614 20.4236 9.1006M20.7281 22.0566C20.6911 18.293 20.5084 14.4786 20.528 9.31924M20.8541 22.0259C21.1205 18.2931 20.9044 14.7014 20.8768 9.02216M20.8565 21.9467C20.8661 18.9525 20.7271 16.0552 20.8222 9.21536M21.1437 21.8951C20.9303 18.0155 20.9931 13.7859 20.6834 8.92756M21.0888 21.7768C20.8496 17.1685 20.931 12.5219 20.905 9.25444M20.892 21.5802C21.2879 18.4721 20.9543 15.3099 21.1376 9.35617M21.1047 21.9516C21.1917 17.0994 20.9164 12.3733 21.036 9.27259M21.5269 21.2229C21.1859 16.9795 21.3687 12.6285 21.232 9.29019M21.2381 21.7175C21.2843 16.7462 21.0119 11.6461 21.1704 9.05124M21.2566 21.7565C21.6596 19.2643 21.5298 15.6644 21.6022 9.07244M21.5595 21.8003C21.3176 18.1489 21.2695 14.6234 21.3673 9.17992M21.6524 21.4863C21.7806 18.3738 21.8192 16.1617 21.3025 9.52813M21.619 21.5389C21.3984 17.323 21.5585 13.1662 21.4956 9.064M21.7159 21.6312C21.9083 18.5336 21.6185 16.2043 21.4465 9.04362M21.7911 21.2856C21.67 17.7457 21.5769 14.255 21.7316 9.21231M21.9798 21.3078C21.9098 17.0174 21.8947 12.7172 21.621 9.40847M21.9051 21.2158C21.9397 18.2721 21.6936 15.2154 21.7209 9.48481M21.8317 21.1242C21.6598 18.7092 21.9188 15.5829 21.6682 9.99936M22.1256 21.1924C21.8849 18.444 22.0457 15.6165 21.9891 9.93432M22.2468 20.8069C22.2973 18.1828 22.2274 14.173 21.8548 10.3368M22.208 21.0594C22.1011 18.3147 22.2704 16.078 22.1168 10.0544M22.1249 20.8589C22.3114 18.8008 22.0265 16.6072 22.0908 10.0822M22.3618 21.0642C22.1589 17.0499 22.1623 13.1497 22.1969 10.4231M22.4595 20.4512C22.0765 17.1067 22.4054 13.7785 22.2342 10.9872M22.4173 20.3041C22.5251 16.8834 22.289 13.4479 22.244 10.8642M22.6101 19.714C22.3884 17.2631 22.8262 14.3307 22.7659 10.9114M22.5995 19.9203C22.5392 17.0004 22.4591 14.4693 22.4659 11.5404M22.5318 19.105C22.9009 16.5021 22.6326 13.7069 22.4646 11.5261M22.7618 18.8338C22.7439 17.1221 22.7399 15.2074 22.7252 11.6885M22.6843 18.7379C23.0415 16.8281 22.5476 15.111 23.0339 12.5899M22.7325 18.1546C22.8427 16.4584 22.7302 14.4477 22.9144 12.0808M23.165 17.8369C22.8729 17.2613 22.9539 16.6004 23.0864 15.1418M23.0543 17.5895C23.0489 17.0829 22.9078 16.5576 23.0438 14.9" stroke="white" stroke-linecap="round"/>
<path d="M20.2236 9.42928C20.6211 9.00958 21.2817 9.13894 21.7039 9.67857C22.1261 10.2182 22.5268 11.3459 22.7567 12.6671C22.9867 13.9883 23.1633 16.1273 23.0835 17.6056C23.0038 19.084 22.6571 20.7419 22.278 21.5374C21.8989 22.3328 21.2575 22.5297 20.8091 22.3782C20.3606 22.2266 19.9384 21.6098 19.5871 20.628C19.2359 19.6461 18.7777 17.9482 18.7016 16.4869C18.6256 15.0256 18.7687 13.1051 19.131 11.86C19.4933 10.6149 20.5334 9.46183 20.8754 9.01659C21.2174 8.57135 21.1809 9.06163 21.1827 9.18859M21.3568 9.00395C21.816 9.10235 22.3072 9.97627 22.5833 11.0059C22.8593 12.0354 22.9884 13.674 23.013 15.1814C23.0375 16.6888 23.0262 18.8049 22.7305 20.0501C22.4348 21.2953 21.701 22.3852 21.2386 22.6525C20.7762 22.9198 20.337 22.3832 19.9562 21.6538C19.5754 20.9244 19.0972 19.5926 18.9538 18.2762C18.8103 16.9598 18.957 15.1124 19.0953 13.7555C19.2337 12.3985 19.4122 10.9321 19.7837 10.1345C20.1552 9.33688 21.0864 9.1392 21.3243 8.96987C21.5621 8.80054 21.2086 8.94907 21.2106 9.11848" stroke="white" stroke-width="2" stroke-linecap="round"/>
<path d="M34.9204 16.2178C35.2033 14.7151 34.9867 13.2261 34.8165 10.3405M34.8443 16.3885C34.862 15.0524 35.0043 13.9073 34.9318 10.366M35.0718 17.5363C35.0881 14.6034 35.055 12.0242 35.0688 9.78244M35.1174 17.2204C35.1804 14.3791 34.9093 12.0112 34.9994 9.75136M35.4094 18.2902C35.2739 15.9378 34.993 12.9273 35.2714 9.51012M35.235 18.0019C35.1547 15.5438 35.334 13.2338 35.1251 9.32457M35.4181 18.3931C35.5824 15.6221 35.3391 11.8331 35.4791 8.80338M35.3656 18.77C35.449 15.6267 35.5013 13.0568 35.3899 8.8718M35.653 19.8476C35.9127 15.2322 35.8252 11.024 35.2355 8.18539M35.5939 19.7107C35.4036 16.7108 35.4513 14.2451 35.6673 8.66337M35.6967 19.9471C35.8744 15.482 35.9463 12.0536 35.6212 7.92516M35.7887 19.5712C35.7533 15.9981 35.8365 12.2244 35.7479 8.02069M36.268 19.7987C35.8993 15.9714 35.8482 12.4811 36.0712 7.26405M35.8298 19.9052C35.9794 16.952 35.8811 14.5009 35.82 7.48633M36.1661 19.5814C36.1714 15.1749 36.0766 11.6541 35.9448 6.7253M36.2752 20.0366C36.1733 15.6249 36.0634 10.7724 35.8598 6.79111M36.3977 20.2325C36.3112 15.0097 35.8127 9.59483 36.4462 6.92231M36.3613 19.7673C36.2927 14.6922 36.1393 9.38266 35.9833 6.85696M36.2264 20.5405C36.1545 14.9144 36.5981 10.1082 36.3887 6.39227M36.579 20.15C36.4294 16.8492 36.4421 13.1564 36.3609 6.88127M36.367 20.1219C36.7718 17.2134 36.6812 14.991 36.1797 6.86928M36.6941 20.1499C36.7109 16.047 36.4325 12.2949 36.5105 6.7934M36.9778 20.3368C37.0787 15.8904 36.7089 10.7817 36.3142 6.6777M36.859 20.4375C36.7997 15.6549 36.4951 10.7823 36.5526 6.72167M37.2393 20.8916C37.075 16.8629 36.9905 14.2637 36.7465 6.40333M37.0659 20.8559C36.943 15.2837 36.946 9.62273 36.8676 6.67613M37.0203 20.4628C36.7694 16.7894 36.7039 12.1989 36.647 6.60695M37.1355 20.709C37.0021 15.5448 36.8467 10.1009 37.0788 6.71772M37.5339 20.4143C37.143 15.1491 37.1321 9.5459 37.0082 6.74548M37.4286 20.9402C37.2559 16.255 37.2816 11.1073 37.093 6.75366M37.1767 20.4385C37.6365 16.2387 37.5222 12.9271 37.5948 6.52347M37.4476 20.5359C37.4824 16.0522 37.2729 12.001 37.3165 6.75877M37.3968 20.6131C37.6688 15.6776 37.7461 11.2146 37.714 6.90538M37.5931 20.2523C37.6414 16.2101 37.5241 11.7772 37.525 6.80558M38.0409 20.5056C37.486 15.4106 37.9072 10.9898 37.7396 6.05562M37.6439 20.1991C37.823 15.5155 37.8492 11.0191 37.5378 6.45364M37.8812 19.7937C37.8661 16.0704 37.6418 11.9419 37.951 6.90438M37.874 19.8693C37.8741 15.206 37.8933 10.6964 37.6801 6.5266M38.0535 19.2222C38.1712 14.6581 37.7069 10.1296 37.7177 6.85275M38.1749 19.7519C37.8498 16.5969 37.9269 13.9405 38.0317 6.28879M38.2332 19.7782C38.0972 14.639 38.3128 9.3905 37.8943 7.25429M38.0896 19.5682C38.2056 14.9062 38.2562 10.4838 38.11 6.87627M38.5833 19.165C38.2879 17.0441 37.9939 14.5834 38.12 7.09093M38.381 19.2326C38.3395 15.6425 38.2859 12.2643 38.1476 7.54723M38.2735 18.4947C38.6946 16.3005 38.3203 14.3894 38.2138 7.72115M38.463 19.0657C38.5281 14.6074 38.493 10.6762 38.3311 7.87935M38.7213 18.4646C38.6879 15.5803 38.8957 12.0562 38.3906 7.79512M38.7938 18.8811C38.7332 16.2804 38.6817 14.1605 38.6618 7.99841M38.9359 17.7729C38.8025 14.8767 38.8286 11.2393 38.4798 8.8776M38.9238 17.5458C38.831 15.5699 38.6533 13.4906 38.7726 8.77778M39.1492 17.0169C38.7509 14.5995 38.7583 13.068 38.8307 9.07505M38.9498 17.0249C39.1686 13.9208 38.9009 11.0861 38.7881 9.17531M38.8911 15.5295C39.448 13.9378 38.7832 11.8121 39.3338 9.94957M39.2269 15.9283C38.9609 13.5328 38.9565 11.0468 39.0542 9.62004" stroke="white" stroke-linecap="round"/>
<path d="M37.8385 6.59413C38.3368 6.99879 38.9651 8.6085 39.2047 9.96126C39.4442 11.314 39.3652 13.2386 39.2758 14.7107C39.1865 16.1828 39.0091 17.7771 38.6687 18.794C38.3282 19.811 37.7467 20.7042 37.2332 20.8124C36.7197 20.9206 35.9948 20.3775 35.5879 19.4431C35.1809 18.5086 34.9169 16.705 34.7916 15.2056C34.6663 13.7062 34.6354 11.8543 34.8359 10.4465C35.0364 9.03873 35.4702 7.32519 35.9948 6.75881C36.5194 6.19244 37.6166 6.92014 37.9836 7.04829C38.3505 7.17644 38.1857 7.39538 38.1964 7.5277M35.9645 7.23614C36.3586 6.46194 37.0517 6.28439 37.519 6.63807C37.9864 6.99175 38.4822 8.1151 38.7686 9.35819C39.055 10.6013 39.2077 12.603 39.2376 14.0966C39.2675 15.5902 39.2888 17.1697 38.9479 18.3198C38.607 19.4698 37.7572 20.7489 37.1923 20.997C36.6273 21.2451 35.9455 20.678 35.5582 19.8083C35.171 18.9386 35.0199 17.3289 34.8687 15.7788C34.7176 14.2287 34.4778 11.924 34.6514 10.5076C34.8251 9.09124 35.6541 7.78591 35.9106 7.28065C36.1672 6.77539 36.1701 7.3367 36.1908 7.47603" stroke="white" stroke-width="2" stroke-linecap="round"/>
</svg>
